<svg xmlns="http://www.w3.org/2000/svg" version="1.1" xmlns:xlink="http://www.w3.org/1999/xlink" viewBox="0 0 200 200"><rect width="200" height="200" fill="url('#gradient')"></rect><defs><linearGradient id="gradient" gradientTransform="rotate(45 0.5 0.5)"><stop offset="0%" stop-color="#000000"></stop><stop offset="100%" stop-color="#000000"></stop></linearGradient></defs><g><g fill="#ffffff" transform="matrix(4.196099728462108,0,0,4.196099728462108,12.506826111835423,129.83852578457183)" stroke="#ffffff" stroke-width="0"><path d="M4.50-14.22L4.50-2.64L10.47-2.64L10.47 0L1.07 0L1.07-14.22L4.50-14.22ZM19.38-4.81L22.79-4.81Q22.72-3.33 21.99-2.19Q21.26-1.05 19.94-0.43Q18.61 0.20 16.91 0.20L16.91 0.20Q14.11 0.20 12.50-1.63Q10.89-3.46 10.89-6.79L10.89-6.79L10.89-7.49Q10.89-9.58 11.62-11.15Q12.34-12.71 13.71-13.57Q15.08-14.42 16.88-14.42L16.88-14.42Q19.46-14.42 21.04-13.06Q22.61-11.70 22.82-9.31L22.82-9.31L19.40-9.31Q19.37-10.61 18.75-11.17Q18.13-11.74 16.88-11.74L16.88-11.74Q15.60-11.74 15-10.78Q14.40-9.82 14.38-7.72L14.38-7.72L14.38-6.72Q14.38-4.44 14.95-3.47Q15.52-2.49 16.91-2.49L16.91-2.49Q18.10-2.49 18.72-3.05Q19.35-3.60 19.38-4.81L19.38-4.81ZM31.75-3.78L31.75-3.78Q31.75-4.53 31.22-4.95Q30.68-5.37 29.35-5.82Q28.01-6.27 27.16-6.69L27.16-6.69Q24.39-8.05 24.39-10.42L24.39-10.42Q24.39-11.60 25.08-12.50Q25.77-13.41 27.03-13.91Q28.29-14.41 29.86-14.41L29.86-14.41Q31.40-14.41 32.61-13.87Q33.83-13.32 34.50-12.31Q35.18-11.30 35.18-10L35.18-10L31.76-10Q31.76-10.87 31.23-11.35Q30.69-11.83 29.79-11.83L29.79-11.83Q28.87-11.83 28.33-11.42Q27.80-11.02 27.80-10.39L27.80-10.39Q27.80-9.84 28.39-9.40Q28.97-8.96 30.45-8.48Q31.92-8.01 32.87-7.46L32.87-7.46Q35.18-6.13 35.18-3.80L35.18-3.80Q35.18-1.93 33.77-0.87Q32.36 0.20 29.91 0.20L29.91 0.20Q28.18 0.20 26.78-0.42Q25.38-1.04 24.67-2.12Q23.96-3.20 23.96-4.61L23.96-4.61L27.40-4.61Q27.40-3.47 27.99-2.92Q28.58-2.38 29.91-2.38L29.91-2.38Q30.76-2.38 31.25-2.75Q31.75-3.12 31.75-3.78ZM38.82-3.19L38.82-3.19Q39.60-3.19 40.12-2.73Q40.63-2.27 40.63-1.54Q40.63-0.82 40.12-0.36Q39.60 0.11 38.82 0.11L38.82 0.11Q38.03 0.11 37.51-0.36Q37.00-0.83 37.00-1.54Q37.00-2.26 37.51-2.72Q38.03-3.19 38.82-3.19Z"></path></g></g></svg>